<mxfile host="app.diagrams.net" modified="2023-07-26T10:51:25.068Z" agent="Mozilla/5.0 (X11; Linux x86_64; rv:109.0) Gecko/20100101 Firefox/115.0" etag="sJcjLbMQWiKwrR1tcjd9" version="21.2.1" type="device">
  <diagram name="Page-1" id="Q07v23xAye6RxvADJUx6">
    <mxGraphModel dx="775" dy="1112" grid="1" gridSize="10" guides="1" tooltips="1" connect="1" arrows="1" fold="1" page="1" pageScale="1" pageWidth="1169" pageHeight="827" math="0" shadow="0">
      <root>
        <mxCell id="0" />
        <mxCell id="1" parent="0" />
        <mxCell id="Y7x5n66CxU2vdpoZQT9u-1" value="Public OpenShift Cluster" style="rounded=0;whiteSpace=wrap;html=1;align=left;verticalAlign=top;" vertex="1" parent="1">
          <mxGeometry x="100" y="210" width="250" height="370" as="geometry" />
        </mxCell>
        <mxCell id="Y7x5n66CxU2vdpoZQT9u-2" value="" style="sketch=0;html=1;aspect=fixed;strokeColor=none;shadow=0;fillColor=#3B8DF1;verticalAlign=top;labelPosition=center;verticalLabelPosition=bottom;shape=mxgraph.gcp2.globe_world" vertex="1" parent="1">
          <mxGeometry x="30" y="60" width="100" height="95" as="geometry" />
        </mxCell>
        <mxCell id="Y7x5n66CxU2vdpoZQT9u-3" value="" style="endArrow=none;html=1;rounded=0;strokeWidth=5;" edge="1" parent="1">
          <mxGeometry width="50" height="50" relative="1" as="geometry">
            <mxPoint x="440" y="640" as="sourcePoint" />
            <mxPoint x="440" y="80" as="targetPoint" />
          </mxGeometry>
        </mxCell>
        <mxCell id="Y7x5n66CxU2vdpoZQT9u-6" value="SNO / CRC" style="rounded=0;whiteSpace=wrap;html=1;verticalAlign=top;align=left;" vertex="1" parent="1">
          <mxGeometry x="570" y="160" width="370" height="290" as="geometry" />
        </mxCell>
        <mxCell id="Y7x5n66CxU2vdpoZQT9u-5" value="" style="shape=link;html=1;rounded=0;entryX=0.008;entryY=0.581;entryDx=0;entryDy=0;entryPerimeter=0;" edge="1" parent="1" source="Y7x5n66CxU2vdpoZQT9u-7" target="Y7x5n66CxU2vdpoZQT9u-8">
          <mxGeometry width="100" relative="1" as="geometry">
            <mxPoint x="510" y="400" as="sourcePoint" />
            <mxPoint x="610" y="400" as="targetPoint" />
          </mxGeometry>
        </mxCell>
        <mxCell id="Y7x5n66CxU2vdpoZQT9u-7" value="Namespace&lt;br&gt;skupper-public" style="rounded=0;whiteSpace=wrap;html=1;" vertex="1" parent="1">
          <mxGeometry x="180" y="365" width="120" height="60" as="geometry" />
        </mxCell>
        <mxCell id="Y7x5n66CxU2vdpoZQT9u-8" value="Namespace&lt;br&gt;skupper-private" style="rounded=0;whiteSpace=wrap;html=1;align=center;verticalAlign=top;" vertex="1" parent="1">
          <mxGeometry x="600" y="250" width="290" height="155" as="geometry" />
        </mxCell>
        <mxCell id="Y7x5n66CxU2vdpoZQT9u-10" value="" style="rounded=1;whiteSpace=wrap;html=1;" vertex="1" parent="1">
          <mxGeometry x="500" y="510" width="410" height="190" as="geometry" />
        </mxCell>
        <mxCell id="Y7x5n66CxU2vdpoZQT9u-9" value="" style="shape=image;html=1;verticalAlign=top;verticalLabelPosition=bottom;labelBackgroundColor=#ffffff;imageAspect=0;aspect=fixed;image=https://cdn1.iconfinder.com/data/icons/unicons-line-vol-5/24/robot-128.png" vertex="1" parent="1">
          <mxGeometry x="520" y="561" width="69" height="69" as="geometry" />
        </mxCell>
        <mxCell id="Y7x5n66CxU2vdpoZQT9u-12" value="&lt;b&gt;hub-controller&lt;/b&gt;" style="rounded=0;whiteSpace=wrap;html=1;" vertex="1" parent="1">
          <mxGeometry x="740" y="310" width="120" height="60" as="geometry" />
        </mxCell>
        <mxCell id="Y7x5n66CxU2vdpoZQT9u-14" value="&lt;div&gt;&lt;br&gt;&lt;/div&gt;&lt;div&gt;&lt;b&gt;Edge Hub Service&lt;/b&gt;&lt;br&gt;&lt;/div&gt;&lt;div&gt;&lt;br&gt;&lt;/div&gt;&lt;div&gt;Flask: GoPiGo3 &lt;br&gt;&lt;/div&gt;&lt;div&gt;system process&lt;/div&gt;&lt;div&gt;:5000&lt;br&gt;&lt;/div&gt;" style="rounded=0;whiteSpace=wrap;html=1;" vertex="1" parent="1">
          <mxGeometry x="620" y="540" width="120" height="90" as="geometry" />
        </mxCell>
        <mxCell id="Y7x5n66CxU2vdpoZQT9u-15" value="&lt;div&gt;Starter App&lt;/div&gt;&lt;div&gt;MicroShift&lt;br&gt;&lt;/div&gt;" style="rounded=0;whiteSpace=wrap;html=1;" vertex="1" parent="1">
          <mxGeometry x="760" y="555" width="120" height="60" as="geometry" />
        </mxCell>
        <mxCell id="Y7x5n66CxU2vdpoZQT9u-18" value="" style="shape=flexArrow;endArrow=classic;html=1;rounded=0;entryX=0.5;entryY=0;entryDx=0;entryDy=0;" edge="1" parent="1" source="Y7x5n66CxU2vdpoZQT9u-12" target="Y7x5n66CxU2vdpoZQT9u-10">
          <mxGeometry width="50" height="50" relative="1" as="geometry">
            <mxPoint x="710" y="600" as="sourcePoint" />
            <mxPoint x="760" y="550" as="targetPoint" />
          </mxGeometry>
        </mxCell>
      </root>
    </mxGraphModel>
  </diagram>
</mxfile>
